<svg xmlns="http://www.w3.org/2000/svg" viewBox="0 0 430 880" role="img" aria-label="Phone frame">
  <defs>
    <linearGradient id="frame" x1="0" y1="0" x2="1" y2="1">
      <stop offset="0" stop-color="#151a24"/>
      <stop offset="0.48" stop-color="#05070d"/>
      <stop offset="1" stop-color="#1d2430"/>
    </linearGradient>
    <linearGradient id="rim" x1="0" y1="0" x2="1" y2="0">
      <stop offset="0" stop-color="#263241"/>
      <stop offset="0.5" stop-color="#06080e"/>
      <stop offset="1" stop-color="#344154"/>
    </linearGradient>
    <filter id="shadow" x="-20%" y="-20%" width="140%" height="140%">
      <feDropShadow dx="0" dy="28" stdDeviation="30" flood-color="#06111f" flood-opacity="0.25"/>
      <feDropShadow dx="0" dy="8" stdDeviation="10" flood-color="#000000" flood-opacity="0.22"/>
    </filter>
  </defs>
  <rect x="4" y="2" width="422" height="876" rx="72" fill="url(#rim)" filter="url(#shadow)"/>
  <path fill="url(#frame)" fill-rule="evenodd" d="M74 8H356C394.66 8 422 35.34 422 74V806C422 844.66 394.66 872 356 872H74C35.34 872 8 844.66 8 806V74C8 35.34 35.34 8 74 8ZM58 42H372C386.36 42 398 53.64 398 68V812C398 826.36 386.36 838 372 838H58C43.64 838 32 826.36 32 812V68C32 53.64 43.64 42 58 42Z"/>
  <rect x="156" y="42" width="118" height="30" rx="15" fill="#05070d"/>
  <circle cx="291" cy="57" r="5" fill="#202938"/>
  <rect x="0" y="164" width="6" height="70" rx="3" fill="#202938"/>
  <rect x="424" y="205" width="6" height="106" rx="3" fill="#202938"/>
  <rect x="57" y="47" width="316" height="2" rx="1" fill="#ffffff" opacity="0.13"/>
</svg>
